<svg id="Layer_2" data-name="Layer 2" xmlns="http://www.w3.org/2000/svg" viewBox="0 0 858.91 995.1"><path d="M216.81,302.51c3.66,1,5.48,5.35,6,6.57l10.76-2.69c3.8-10.5,12.71-15.86,19.36-14.1,4.47,1.19,7,5.36,8,7.17l21.64-4.25c3.69-9.95,12.72-15.49,20.52-14,6.32,1.21,9.89,6.65,10.76,8.07l34.1-4.53c1.53-11.26,7.24-17.93,11.6-17.55,3.81.34,6.32,6,6.93,7.5a35.75,35.75,0,0,1,35.66-2.12c2.45-5.54,5.11-6.34,6.09-6.51,5.18-.91,12.31,7,16.69,20.66l28.87-.71c.78-1.62,4.12-8,11.33-10.45,8.17-2.72,18,.82,23.9,9l23.63,1.27c.77-1.57,3.83-7.33,10-9.2,7.77-2.32,17.51,2.35,22.35,12l18.12.85c.44-2,1.77-6.65,5.51-8.49,5.47-2.68,14.93,1.2,20.38,11.46l14.86,1.56c0-.44.26-4.19,2.83-5.66,2.85-1.64,7.89-.08,10.47,4.81l5.09-2c-1.83-14-4.71-32.76-9.34-54.62-6.09-28.78-12.38-49.62-19.24-72.16-8.51-27.95-15.16-49.53-27.45-77.26-14.32-32.29-23.08-43.12-28.3-49-6.85-7.66-19.79-21.8-41.6-30.56A111.39,111.39,0,0,0,456.68,0a134.15,134.15,0,0,0-29.15,2.55c-14.3,2.68-15.52,5-33.68,9.34-11.05,2.62-19.26,4.56-30.56,5.09-9.75.47-10.8-.64-30.85-1.13-13.32-.32-20-.48-24.62.29A74.06,74.06,0,0,0,275,30.61c-2.32,1.79-10.24,8.15-20.38,24.34-8.65,13.81-13.88,26.72-19.81,45a614.17,614.17,0,0,0-16.13,60.85c-5.71,26.06-9.36,42.68-12.45,65.09A588.44,588.44,0,0,0,200.85,317C204.12,306.45,211.75,301.13,216.81,302.51Z"/><path d="M295.09,382.8c22.36,3.06,38.68,2.61,61.69,2A635.79,635.79,0,0,0,422,379.54c21.71-2.84,42.66-5.58,70.19-13.3A412.17,412.17,0,0,0,545,347.42,308.67,308.67,0,0,0,583,328a213.78,213.78,0,0,0,24.62-17.26,199.19,199.19,0,0,0,16.41-15.14l-15.56,8.77-2-2.12-15.43-1.14c-.27,6.55-3.33,11.86-7.92,13.59a10.71,10.71,0,0,1-6.65.14c-6.44-1.78-11.13-9.11-12.59-18.4l-18.4-.56c-.07,7.36-3.52,13.71-9.06,16.41a14.68,14.68,0,0,1-9.19,1.13c-7.56-1.45-13.7-8.93-15.85-18.82l-20.09-1.27a17,17,0,0,1-1,10.33,17.53,17.53,0,0,1-10.05,9.06,19.89,19.89,0,0,1-9.62.85c-7.92-1.46-14.56-9.05-17.27-19.11l-28-.28a38.85,38.85,0,0,1-4.11,13.58c-1.68,3.25-6.66,12.86-12,12-3.38-.52-5.44-5-6.37-7.5a28.37,28.37,0,0,1-18.82,6.51,27.87,27.87,0,0,1-14.72-4.95c-.31.76-3,7.15-7.35,7.36-4.07.19-7-5.25-9.48-9.77a41.58,41.58,0,0,1-4.81-16l-33.12,4.18c-.08.86-1.77,15.74-12.66,20.09a14.14,14.14,0,0,1-9.55.64c-5.68-1.82-9.8-7.8-10.54-15.28l-20.45,4.1c-.19,1.6-2.17,16.15-12.73,20.52-1.42.58-5.26,2.17-9.06.56-4.54-1.92-7.34-7.7-6.93-14.57l-9.91,1.84c-.18,2.22-1.41,14.93-10.19,19.52-1.23.65-3.51,1.8-5.94,1.14-4-1.09-6.77-6.58-6.79-13.87-1.62,3.35-3.49,6.91-5.66,10.61s-4.27,6.92-6.37,9.91A277.31,277.31,0,0,0,247.26,372,282.89,282.89,0,0,0,295.09,382.8Z"/><path d="M858,312.47c-3-17.5-12.4-28.83-17-34.24a86.76,86.76,0,0,0-36.22-24.62c-18.6-6.67-33.85-5-53.77-2.83a209.94,209.94,0,0,0-58.87,15.57,255.57,255.57,0,0,0-47,25.46c-12.58,8.45-11.49,9.21-34.81,26-24.82,17.92-34.25,23-37.92,24.9a197.11,197.11,0,0,1-34,13.87c4.45-.46,10.73-1.16,18.25-2.12,11.67-1.49,21.61-3,34.95-5.24,26.29-4.35,26.6-4.84,36.79-6.36,13.3-2,32.85-4.93,55.61-4.11a220.84,220.84,0,0,1,57,9.77,253.24,253.24,0,0,0-98.34,4.52c4.24,6.25,8.07,11.15,10.9,14.58,3.35,4.08,6.24,7.24,12,13.58,9.09,10,8.21,8.5,10.05,10.9,6.86,8.94,6.52,12.88,12.73,17.54,3.53,2.65,4.1,1.73,8.07,4.81a39.33,39.33,0,0,1,9.9,11.75,43.38,43.38,0,0,1,6.09,16.84c1.25,9.7-1.48,17.64-3.82,24.48-2.22,6.46-4.37,9.83-6.23,18.25a80.93,80.93,0,0,0-1.43,8.71c7.05-4.31,17-10.61,28.46-18.76,20-14.14,33.35-25.78,54.33-44.14,20.77-18.18,31.39-27.54,43.3-41,18.89-21.41,24-32.87,26.6-40.47C856.5,342.11,860.85,329,858,312.47Z"/><path d="M696.94,480.86c2.22-9.49,3-9.3,4-15.43.68-4.28,2-12.19.28-21.08-1.71-9.07-5.7-15.05-11.46-23.49-3-4.43-5.4-7.3-18.68-21.93-14.24-15.69-15.89-17.22-21.08-23.21-4.81-5.54-11.75-13.85-19.67-24.62Q614.68,354,598,356.34q-10.51,1.5-20.66,2.69a61.43,61.43,0,0,1,4.81,11.18c1.33,4.19,3.24,10.26,2.83,17.82-.44,8-3,9.37-1.7,15,1,4.07,2.54,4.21,4,9.34,1.08,3.87.64,5.41,1,12,.53,9.79,1.59,8.39,1.7,15.56.11,6.84-.83,10.27,1.13,14.72.34.77,1,2.16,1.84,4.39a51.54,51.54,0,0,1,2,6.93c1.92,8.78.64,9.93,2.41,13.58,2.08,4.29,4,3,5.52,6.51,3,7-4.12,13.05-.57,19.25,1,1.7,1.94,2,3.26,4.67,1.43,2.92,1,4.1,2.54,6.79,1.26,2.24,3.44,4.81,4.53,4.38.59-.22.53-1.18.85-2.54.5-2.16,1.66-3.64,4-6.51,4-4.92,4.79-4.19,6.09-6.65,1.69-3.23,1.31-6.53,1-9.34-.65-5.63-2.7-6-3.4-11.6-.29-2.29-.05-4.78.43-9.77.16-1.74.29-2.67,1.27-9.34,1.53-10.43,1.72-11.59,2.69-13.58s2.48-5.09,5.66-7.08c2.61-1.63,3.78-.95,7.64-3.11,3.24-1.81,3.26-2.76,5.52-3.39a10.4,10.4,0,0,1,7.5.84c1.94,1.13,3.57,3.13,5,7.93a42.45,42.45,0,0,1,.85,18.68c-1.48,8.75-3.59,14.28-6.09,21.65-1.37,4.06-5.67,16.82-8.91,30.13-4,16.25-2.43,17.25-6.23,28.16-4.57,13.17-9.77,20.29-11.46,22.5a69.61,69.61,0,0,1-12.59,12.74c-.74,4.23-1.77,10-3.12,16.69-.93,4.72-2.21,10.88-4.38,20.52-5,22.14-5.14,20.06-6.51,27.59-2.24,12.32-3.84,21.11-2.41,32.69A78.75,78.75,0,0,0,605,706.26c3.59,6.57,8.85,15.91,19.53,22.36,1.39.84,14.29,8.5,18.53,4.53,2.89-2.7-.92-8.29.29-22.5.67-7.92,2.19-10.21,4-11,2.75-1.28,4.82,1.57,8.35,1.42,7.66-.32,13-14.42,15.84-22.08a103.77,103.77,0,0,0,6.23-28.72,126.53,126.53,0,0,0-.42-25.33c-.57-4.86-1.33-9-2-12,1,2.19,9,18.84,15.57,17.69s8.47-20.2,9.06-26.6a78.48,78.48,0,0,0-2-26.46c-1.89-7.17-2.85-6.21-6.93-18.54-3.87-11.68-4.79-17.93-5.09-22.92-.16-2.58-.9-14.93,2.69-16,1.27-.37,2.75.79,3.82,1.84a165.13,165.13,0,0,1,.7-17.83A173.88,173.88,0,0,1,696.94,480.86Z"/><path d="M196,513.68a34.05,34.05,0,0,1-5.38-11.32,33.15,33.15,0,0,1-.85-13c1.62-10.8,8.47-12,11-21.23,1.23-4.41.05-5.54-3.68-23.2-2.41-11.42-4.24-20.22-5.09-30.85-1.43-17.81,1.24-23.72,2.26-25.75,1.19-2.37,5.34-10.65,13.59-13,4.72-1.36,9.72-.48,12.45,0,5.22.92,7.16,2.46,11.88,2.55a23.72,23.72,0,0,0,8.78-1.56c-7.55-3-19.53-7.85-34-14.57-14.68-6.84-21.69-10.82-56.6-29.15-28.57-15-35.11-18.24-45-22.36A197.55,197.55,0,0,0,63.6,297.47c-16.73-3-25.64-2.26-33.11-.28-5.44,1.44-13.06,3.56-19.53,10.19C3.56,315,1.92,324,.77,330.87c-.63,3.79-3,19.82,5.66,42.16,6.1,15.78,14.17,25.63,24.9,38.49A267.26,267.26,0,0,0,76.05,454c19.45,14.6,35.34,22.52,55.47,32.55A551.7,551.7,0,0,0,196,513.68Z"/><path d="M609.36,532.79c-.75-.39-1.79.86-2.83.28-1.81-1-.5-5.74-1.56-6.08s-3,4.54-5.09,4.24c-1-.14-1.16-1.34-2-1.41-1.34-.13-2.83,2.84-5.09,9.19-2.89,8.11-3.14,10.79-6.08,14.29-1.4,1.67-1.57,1.34-2.69,2.83-2.61,3.5-3,7.09-3.54,12.17-1.31,12.91-1.5,16.55-3.68,17.41-1.38.54-1.94-.68-3.54-.43-6.42,1-6.87,22.26-11.32,22.5-1.32.07-1.58-1.8-3.11-1.84-4.89-.11-9,18.8-9.2,19.95-1.1,5.26-.64,5.48-2.54,15.71-1.52,8.18-2.55,12-5.8,14.86-2.14,1.86-3.09,1.43-5.1,3.68a17,17,0,0,0-4,10.47c-.06,3.23.91,3.17.71,6.22-.07,1-.49,7.33-4.67,9.06a7.09,7.09,0,0,1-5.1-.14c-4.3-1.67-5.79-6.73-6.22-8.21-1.76-6,1.21-7.57-.71-13.3-1.22-3.62-2.61-3.61-3.54-7.5-1.06-4.48,0-8-.85-8.21-1-.26-1.74,5-5.23,6.23-3.31,1.13-5.24-2.74-9.2-1.84-3.41.78-3.4,4-7.36,4.81-2.86.61-3.76-.87-5.8.14-1.34.67-1.59,1.64-4.1,6.23-2.6,4.76-2.67,4.33-3,5.37-1,3.54.54,5.64,1.27,9.91.66,3.84.16,6.62-.85,12.17-.82,4.56-2.54,14-6.08,14.43-2.57.29-4.17-4.39-7.64-4-1.93.24-2.14,1.76-3.82,1.84-3.52.16-4.74-6.37-7.79-6.51-4-.19-5.35,10.66-10.61,11.18-3.47.34-4.94-4.16-9.06-3.68-3.42.4-3.6,3.67-6.79,4.24-5.63,1-10.45-8.19-13.44-6.79-2.06,1-.63,5.77-2.41,6.51-3.05,1.27-8.19-12.56-16.27-12.59-3.61,0-4.27,2.75-10.89,3.68-2.94.41-5.59.78-8.63-.29-4.69-1.64-5.87-5.12-10.19-5.23-2.22-.06-2.19.85-3.82.71-6.18-.56-7.56-13.62-12.74-13.87-2.74-.13-3.31,3.48-6.79,3.54-3.82.06-7.19-4.23-8.49-7.64a12.51,12.51,0,0,1,0-8.92c.31-.76,2-4.93,4.95-5.23,2.11-.22,2.49,1.8,5.38,2.4,1.86.39,2.77-.23,8.63-2.12a53.72,53.72,0,0,1,6.79-2c3.92-.56,6.49.53,9.91,1.41,6,1.54,10.7,1.44,18,1.28,6.61-.15,5.43-.94,14.71-1.42,6.89-.36,9,0,14.3-.85,4.14-.66,4.08-1.06,9.76-2.26,9.74-2.06,16.15-2.17,16.13-2.69s-5.5-.62-8.63-.71c-6.87-.18-11.67-.31-18,.57-4.65.65-4.72,1.09-10.47,1.84-6.46.84-9.27.66-11.89,0-2.41-.61-2.16-1-5.52-2a49.37,49.37,0,0,0-9.62-1.7c-6-.66-6.9-.22-11.18-1-.37-.07-7.29-1.33-7.21-2.27.06-.74,4.53-.39,12-1.41,9.3-1.26,9.41-2.75,15-2.55,3.61.13,5.13.81,10.19.71,3.14-.06,3.63-.34,6.93-.57,6.49-.43,8.37.39,15.14.43A68.52,68.52,0,0,0,429,647.4c9.89-1.55,11.91-4.56,16.55-3,1.33.46,3.48,2,7.78,5.09,3.49,2.51,4.79,3.77,7.22,4s2.64-.8,5.52-.71c2.63.08,3,.94,6.37,1.7a25.92,25.92,0,0,0,8.63.42,19.81,19.81,0,0,0,6.79-1.56c5.36-2.46,5.53-6.32,8.91-6.51,3.18-.17,4.46,3.16,7.22,2.41,2.4-.65,3.44-3.7,3.68-4.39,1-2.89.12-5.36-1.56-9.9-1.15-3.12-3.16-8.57-5.94-8.63-.85,0-1.19.48-2.12.28-1.7-.36-2.23-2.37-3.26-3.82-1.91-2.7-4.45-1.94-8.77-4-6.16-2.89-8.36-7.91-9.48-7.22-.57.35-.09,1.71.71,6.37,1.29,7.57.76,8.27.42,8.49s-1.41.6-5.66-3c-7.57-6.36-10.89-13.23-12.24-12.67-1.1.47.64,5.32-1.2,6.37-1,.58-2.58-.33-3.68-1a18.44,18.44,0,0,1-5.73-5.94,79.17,79.17,0,0,0-7.64-8.7c-.93-1-3.05-2.92-7.29-6.8-2.23-2-4-3.64-6.86-4.38a7,7,0,0,0-3.54-.29c-2.92.66-3.25,3.27-5.59,3.47s-4.29-2.14-4.46-2.33c-1.41-1.71-.87-3-2.19-3.9-1.68-1.15-3.71.12-4.24-.7s1-3,2.68-4.53c.77-.7,2.59-2.21,9.13-4.53,3.76-1.33,5.61-1.7,6.58-3.54.15-.28.91-1.79.28-2.9-.46-.83-1.67-1.37-6-1.2a47.81,47.81,0,0,0-11.6,1.91c-6.94,2-7.5,3.25-7.64,3.82-.42,1.63,1.21,2.64.7,4.67-.1.4-.5,1.76-3.39,3.54a21.73,21.73,0,0,1-8,2.76,65.87,65.87,0,0,1-11.6.92,50.8,50.8,0,0,1-8.63-.64c-3.35-.56-5.06-.87-6.58-2s-2.37-2.7-4.25-5.87c-1.65-2.81-1.86-3.72-3-4.11-1.55-.54-2.47.8-5.16,1.56a13.62,13.62,0,0,1-9.2-.92,12.39,12.39,0,0,1-5.16-5.17,42.06,42.06,0,0,0-3.4,2.59,43.18,43.18,0,0,0-5,5c-3.07,3.52-5.07,4.15-10,8.18a82.74,82.74,0,0,0-11.46,11.56,91.35,91.35,0,0,0-8.49,12.21,74.29,74.29,0,0,0-6.48,12.63c-3.17,8.33-2.74,12.85-5.41,13.58-2.12.58-4.46-1.68-6.69-3.82a19.09,19.09,0,0,1-5.51-9.66c-.79-3.67.36-4-.32-8.06-.74-4.37-2.32-5.39-3.93-9.77-2.16-5.87-.16-6.39-1.91-12.84-1.17-4.33-2.06-4.06-6.9-14.43a91.61,91.61,0,0,1-4.24-10,48.16,48.16,0,0,1-3.08-12.94c-.36-5.27.62-9,2.55-16.45,1.57-6,2.43-7.1,4.35-14.86,1.74-7,1.74-9,1.7-10.08-.24-5.64-2.33-5.91-2.76-11.89s1.61-7.8-.22-11.14c-1.38-2.52-3.05-2.49-4.45-5.73a12.22,12.22,0,0,1-1-6.16c.3-2.6,1.32-3.29,2.44-6.15,1.77-4.51.16-5.15,1.59-9.45,1.61-4.8,3.8-4.51,5.2-9.33,1.06-3.64-.09-4.14,1.17-7.43a14.54,14.54,0,0,1,5.52-7.11c2.91-1.85,3.7-.56,7.11-2.55,3.19-1.86,3.17-3.38,6.26-4.67,2-.82,2.45-.4,5.52-1.06,5.15-1.1,4.94-2.51,8.49-3.08,5.22-.83,10.44,1.45,11.25,1.81a26,26,0,0,0,5.41,1.91c1.67.36,1.95.23,3.4.53,2.9.59,4,1.6,6.68,2.76a19.4,19.4,0,0,0,7.22,2c3,.09,5.35-1,9.55-2.86,3.8-1.72,5-2.86,7.75-2.87a6.29,6.29,0,0,1,4.56,1.38c2.32,2.22,1.39,6.29.53,8.07a3.11,3.11,0,0,1-.95,1.27c-1.22.86-2.41,0-3.72.64-1,.54-.87,1.41-1.8,2.44-1.12,1.23-2.68,1.43-5,1.7a19.18,19.18,0,0,1-8.6-.54c-1.12-.36-1.48-.61-7.21-4.13-5.45-3.36-6-3.67-7-4-1.37-.5-3.62-1.11-8.8-.85-5.41.28-9.25,1.28-15.29,2.87a108.25,108.25,0,0,0-14.53,5.09,29.42,29.42,0,0,0-5,3c-2.13,1.56-3.54,2.62-4.17,4.46-.57,1.66.18,1.91-.36,4.11-.69,2.83-2.22,3.56-1.76,4.81s2.15.85,3.11,2.47a5,5,0,0,1,.21,3.75c-.32,1.25-.87,1.88-2.62,4.11-3.19,4.06-3.47,4.66-3.25,5.09.46.92,2.93.57,4,.42,3.06-.43,3.39-1.56,5.31-1.69,2.5-.17,2.93,1.69,7.21,3.32,3,1.15,6.39,1.6,6.72.85.25-.55-1.36-1.24-3.18-3.89-.59-.85-.4-.76-2.05-3.75a35.55,35.55,0,0,1-2.12-4c-.77-1.93-1.32-3.35-.71-4.46.36-.65.84-.7,4-2a32,32,0,0,0,3.54-1.56c1.73-1.14,1.91-2.05,4.1-3.39a3.67,3.67,0,0,1,2.12-.78,4.09,4.09,0,0,1,2.62,1.56c1.5,1.47,3.48,1.71,7.43,2.19,3.1.37,5.6-.11,10.61-1.06,6-1.16,6.64-2,6.72-2.55a2.51,2.51,0,0,0-1.55-2.19c-1-.47-1.93,0-2.2-.36s.68-1.4,1.28-2.47a7.8,7.8,0,0,0,.56-5.52,29,29,0,0,0,4,2.12c2.81,1.2,4,1.18,4.88,2.41,1.08,1.57-.23,2.65.71,4.31,1.43,2.57,5.72,2.15,5.94,3.89.09.74-.66,1-.5,1.77.25,1.19,2.2,1.13,3.82,2.27,2.4,1.68,2.77,5.05,3,6.93.22,2-.14,3.65-.85,6.79a53.26,53.26,0,0,1-4,11.25,24.29,24.29,0,0,1-3.25,5.52c-.76.93-1.25,1.34-2.19,2.62a23.9,23.9,0,0,0-2.41,4c-1.29,2.74-2,4.27-1.41,5.66s1.76,1.11,3.46,3a10.74,10.74,0,0,1,2.13,3.75c.17.58.65,2.5-1.49,8.21a61.08,61.08,0,0,1-4.17,8.7c-2,3.54-2.28,3.36-3.12,5.31a26.77,26.77,0,0,0-1.91,8.48,43.12,43.12,0,0,0,.07,9.34c.36,3.66.57,5.53,1.77,7.29a25.18,25.18,0,0,0,3.68,3.61c2.24,2,2.76,2.15,3.18,2.05,1.21-.28,1.5-2.58,2-4.67a38,38,0,0,1,4.66-10.47c1-1.62,3.71-3.93,9.06-8.56,3-2.63,4.86-4,8.14-7.15,3.51-3.32,4.33-4.44,4.81-5.16,2-3,2.35-5.36,3.32-8.77,1.53-5.34,2.21-5,5.1-12.6a132.73,132.73,0,0,0,4.6-14.71,128.74,128.74,0,0,0,3.11-17.69,125,125,0,0,0,.64-17.4c-.25-6.21-.77-6.05-1.07-12.74a153.53,153.53,0,0,1,.22-16.77c.39-5.81.38-8.85.35-14.92,0-3.21-.09-6-2.05-7.5s-5-.68-5.38-.57c-3,.94-4.37,3.72-5.09,5.16-.83,1.65-.42,1.7-1.77,5.88s-2.1,5.17-2.76,5.8a6,6,0,0,1-4,1.91c-1.77,0-2.26-1.18-5.8-3.19-2.41-1.36-2.19-.83-4-2-2.25-1.39-1.82-1.7-5.59-4.67-1.07-.84-1.62-1.22-1.91-2.05s-.08-1.23.36-3.68c.5-2.8.48-3.24.21-3.6-.48-.66-1.44-.66-3.26-.64-2.9,0-3.69.66-5.94.42-1.45-.15-2.47-.25-3-1-1.07-1.57,1.13-4.76,2.34-6.51a23.81,23.81,0,0,1,5.51-5.66c-5.21,0-12.87-.07-22.14-.56-8.79-.47-15.81-1.17-29.5-2.55-21-2.12-31.51-3.18-34.6-3.61-4.79-.66-10.62-1-22.29-1.7-5.12-.3-8.72-.45-13.15,1.07-2.37.8-8,2.8-11.47,8.27-2.66,4.15-2.84,8.24-3,12.53-.11,3.62.27,6.88,3,17.4,3.16,12.27,3.95,12.9,5.31,19.74,1.53,7.68,2.29,11.52,1.91,16.77-.54,7.44-3,13.35-7,22.71-3.19,7.52-4.89,9.71-4.89,14.64a37.81,37.81,0,0,0,2.34,11.68c2.14,6.29,3.61,6.39,4,10,.48,4.07-1.13,6.52-4.24,13.59,0,0-1.59,3.59-6,15.28a117,117,0,0,0-5.73,21.65c1.87-3.5,4.12-7.17,5.31-6.79,2,.64-.42,12.71-1.91,24.4a238.45,238.45,0,0,0-1.49,42.88,45.58,45.58,0,0,1,7.43-13,90.76,90.76,0,0,0,15.5,58.79,51.33,51.33,0,0,1,1.06-14c.88-4.09,1.89-8.79,3.61-8.91,2.22-.16,3.06,7.56,9.33,18.68,3.67,6.5,7.06,12.33,12.31,12.95,4.11.48,6-2.61,8.71-1.28,3.85,1.93,3.41,10.19,3.18,14.43a43.66,43.66,0,0,1-3,13.59,40.09,40.09,0,0,0,7-5.1,41.11,41.11,0,0,0,9.55-12.94c-.38,1.73-.6,4.15.71,6,1.21,1.7,2.79,1.65,4.53,2.83,2.77,1.89,2.83,4.81,4.53,10.75,1.82,6.37,3.71,13,6.65,13.31,2.67.28,4.08-4.88,6.79-4.53,2.28.29,3.31,4.17,5.09,9,2.86,7.81,2.58,4.33,7.22,15.85,4.54,11.29,7,20,8.49,19.67.75-.14.45-2.3,1.56-2.69,1.6-.56,4.2,3.28,8.91,9.48,6.8,8.95,8.57,10.41,10.33,10.19,2.74-.34,2.64-4.39,5.09-4.95C341,775,351,801.53,357.21,799.94c1.6-.42,1.42-2.35,3.39-2.83,4.45-1.1,7.59,8.17,13.16,8.06,4.75-.09,5.64-6.9,10.47-6.93,5.3,0,9,8.11,12,6.79,1.26-.56,1-2.18,2.26-2.55,2.4-.68,4.23,4.63,7.93,4.67,2.66,0,3.36-2.7,5.8-2.4,2.84.34,3,4.18,5.66,4.67,3,.56,4.47-4.33,9.34-6.09s6.41,1.86,11.88,1.42c10.12-.83,15-13.94,20.38-12,1.78.64,1.5,2.17,3.4,3.11,5.49,2.73,15.29-6.49,18-9.05,15.53-14.89,21.07-32.07,24.47-31,1.63.52.51,4.49,2.83,5.66,3.7,1.86,12.67-5.1,17.83-13.16,2.4-3.74,4.54-8.59,5.81-8.21.84.25.41,2.55,1.27,2.83,1.46.49,5.29-5.21,7.78-11.6,2.22-5.7,2.76-10.36,4-10.33,1,0,1,3.09,2.13,3.25,1.76.27,4.12-7.32,7.92-18,1.38-3.86,3.88-10.72,7.5-18.67,4.56-10,6.39-11.85,7.22-11.61,1,.3.49,3.68,1.27,3.82.38.08,1.46-.54,5-11.6,3-9.44,2.67-10.47,4.67-15,1.4-3.15,1.55-2.65,5.94-10.47,3.78-6.72,5.67-10.08,7.08-13.58,1.69-4.2,1.41-4.93,4.1-16,3-12.18,3.3-11.24,4.53-17.55a137.44,137.44,0,0,0,2.26-19.38c.54-11.16-.79-10.39-.14-17.41C605.55,545.06,611.45,533.88,609.36,532.79Z"/><path d="M418.47,393.91c-.05-.44-.35-3.16-1.76-3.61-.49-.16-1.45-.16-5.66,4.53-3.4,3.76-5.1,5.69-5.38,7.78s.65,2.15.57,5.94c-.07,2.71-.57,3.83.28,5,.67.94,1.22.58,3.11,2.06,1.65,1.28,2.08,2.21,2.76,2.05.33-.08.5-.35,1.42-2.27.64-1.35,1-2,1.06-2.26.85-2.21,0-3.74.07-6.3,0-.94.84-3.24,2.47-7.85C418.21,396.75,418.67,395.59,418.47,393.91Z"/><path d="M494.18,396.31c-1.19,1.36-3,.95-7.29,1.27-2.15.17-3.66.42-5.8.78-3.74.63-4.59,1.16-8,1.91A58.6,58.6,0,0,1,463,401.62c-5.24.2-6.4-.57-10.05.35-2.58.65-2.3,1.11-5.24,1.84a21.9,21.9,0,0,1-8.77.78c-2.93-.42-4-1.36-6.15-.71a6.75,6.75,0,0,0-3,1.91A10.54,10.54,0,0,0,428,409.4c-.85,2.3-.57,2.35-1.14,3.4-.42.77-.7,1-3,3.32s-2.46,2.64-2.47,3.11c-.07,1.63,2.26,2.94,3.46,3.61a17.47,17.47,0,0,0,8.14,2c2.11.09,2.64-.18,5.59,0A32.9,32.9,0,0,0,442,425a46.39,46.39,0,0,0,4.89-.64c2.57-.35,3.85-.51,4-.21s-.31.58-4.88,3.32C443.47,429,442,429.8,442,431a1.4,1.4,0,0,0,.43,1.06c1.18.95,4-1.6,5-.78.57.5-.27,1.66.57,3.11a2.64,2.64,0,0,0,1,1.07c1.09.58,2.32-.2,4.67-1.14,2.72-1.08,4.47-1.78,5.16-1.13s-.28,1.63-.07,3.61c.32,3.05,2.84,4.14,2.34,5.24s-4.14,1-6.73.07a11.83,11.83,0,0,1-4.31-2.76,32.05,32.05,0,0,0-4.74,1.7c-3,1.31-3.4,2-7.22,4-3.33,1.75-3.86,1.67-5.59,3-.73.55-4.43,3.34-3.82,4.88s4.69,1,5.17,1c2.29-.25,3.36-1,8.2-3.25,5-2.37,6-2.58,7.08-2.62s1.75.18,6,1.56c7.48,2.4,9.52,2.87,10.69,1.84.92-.83.38-1.8,1.48-2.69s2.87-.6,5.52-.22a47.2,47.2,0,0,0,8.21.64c2.86-.09,5.88-.2,7.5-2.26a8.12,8.12,0,0,0,1.41-3.4c.32-1.86-.22-2.76.5-3.68s2.19-1.28,2.83-.78,0,1.59.63,2.48,1.73.83,3.54.85c4.5.05,6.78.07,8.28-.28,2.23-.53,3.87-.92,4.1-1.91.35-1.54-2.85-3.48-4.24-4.32-2.82-1.7-4.33-1.74-8.63-3.47-3.76-1.5-3.14-1.68-5.73-2.61a40.88,40.88,0,0,0-10.55-2c-5.66-.55-9-.27-9.34-1.48-.13-.54.41-1.1.78-1.49,2.17-2.24,5.67-.9,6.51-2.47.53-1-.71-1.76-.28-3.05.65-2,4.3-2.46,5.94-2.68,3.17-.43,4.48.27,8.21-.5a13.34,13.34,0,0,0,2-.56c2.43-.95,3.15-2.27,4.67-3.19,1.14-.68,2.76-.71,6-.78,2.9,0,5.23.18,9.48,0,1.42,0,2.48-.13,3.33-.92,1.54-1.42,1.08-4,1.06-4.1-.27-1.42-1-1.89-3.25-4.46-2.94-3.34-2.71-3.68-4.32-5.09-1.85-1.62-2.58-1.55-4.95-3-5.9-3.73-7.37-8-9.62-7.36a3.51,3.51,0,0,0-2,2.26c-.49,1.5.42,2.34.22,4.46A5.16,5.16,0,0,1,494.18,396.31Z"/><path d="M625.06,866.16c-.1-6.49.07-6.13.71-47.55.59-38.21.15-19.31.28-25.61.36-16.86.8-21.91-.28-30.56-.27-2.13-.88-6.5-1.84-14.43-.56-4.59-1-8.37-1.27-10.9a64,64,0,0,1-30.85-41.6A147.25,147.25,0,0,1,583,740.65a141,141,0,0,1-12.45,25.75,144.64,144.64,0,0,1-16.28,21.23c-5.38,6-9,9.94-14.85,14.57s-10.13,6.79-16.28,13.16c-3.22,3.35-3.48,4.22-6.36,7.5a73.77,73.77,0,0,1-22.08,17.4c-7.05,3.55-16.21,8.16-26.46,5.8-5.14-1.18-4.51-2.72-9.9-4.1-9.9-2.52-13.35,2.35-27.17,2.69-5.76.14-14.32.23-20.8-5.24a14.12,14.12,0,0,1-5.09-7.21c-1.41-5.42,2.33-8.11,1-11.46-1.28-3.19-5.81-3.69-20.95-5.81-22.11-3.09-17.11-2.69-21.22-3.11-13.46-1.35-16.28-.51-19.53-3.54C340,804,340.24,797.13,336,796.4c-2.08-.36-2.56,1.19-4.67,1.27-8.31.31-15.73-23.34-19-22.35-.81.24-.73,1.86-1.84,2.12-1.45.34-3.28-2-4.67-4.25q8,22.83,15.85,46.41,10.44,31.44,19.81,62-13.41-27.35-26.6-56.88-16.38-36.75-30-71.6a466.28,466.28,0,0,1,7.92,81.5c.15,15.72-.52,30.47-1.69,44.15a546.3,546.3,0,0,1,43.58,36.79c7.84,7.36,18.79,18.07,31.13,31.7,7.79,8.61,14.33,16.37,19.52,22.78-1.11-3.48-2.46-7.18-4.1-11-1.06-2.5-2.15-4.86-3.25-7.07q6.66,6.95,13.86,14,3.69,3.62,7.36,7.08a360.94,360.94,0,0,1,47.83-50.94c12.28-10.73,27.63-22.58,36.5-29.43,20.89-16.13,25.31-18.37,36.79-28.59,7.9-7,19.58-17.49,31.13-32.54a195.15,195.15,0,0,0,29.44-54.9,235,235,0,0,1-39.62,86.74,96.48,96.48,0,0,1,6.93,17.83c1.69,6.07,2.26,10.47,3.68,20.51,2.17,15.42,3.25,23.12,3.54,24.48,3.31,16,13.12,26.87,20.94,35.52,5.94,6.56,21.64,23.46,48.25,30.42a93.58,93.58,0,0,0,31.27,2.69c-19.13-37.65-25.47-68-27.88-86.6C625.43,888.06,625.06,866.16,625.06,866.16Z"/><path d="M523.18,874.93a599.85,599.85,0,0,0-58.29,45.85c-15.7,14-29.57,27.83-41.75,41A491.89,491.89,0,0,1,528,897.29a21.91,21.91,0,0,0-4.81-22.36Z"/><path d="M329.19,926.44a561.22,561.22,0,0,0-45.56-35.8A24.51,24.51,0,0,1,274.29,903c16.95,9.63,34.73,20.52,53.06,32.82,16,10.72,30.77,21.46,44.43,32A563.12,563.12,0,0,0,329.19,926.44Z"/><path d="M279,776.16c-.18-14.21-.9-27.35-1.91-39.26-2.91-10.41-5.94-15.41-8.28-18a19.27,19.27,0,0,1-3.4-5.1,19.61,19.61,0,0,1-1.69-7.64,52.77,52.77,0,0,1-7.65,5.73,56.94,56.94,0,0,1-12.73,5.73c-12.48,4.17-15.26,2.88-23.14,5.95a57.92,57.92,0,0,0-14.79,9c-11.64,10-11.78,24.5-15.77,47.29-2.19,12.53-5.78,25.41-12.95,51.15-6.47,23.25-11.83,38-17.19,52.64-8,21.76-13.13,32.86-21.65,44.57a135.91,135.91,0,0,1-12.94,15.29,96.15,96.15,0,0,0,45.2,8.7c24.17-1.34,40.93-11.69,48.61-16.56,15-9.5,23.73-20.24,33.53-32.26,7.74-9.48,13.39-16.42,17.83-27.17,3.14-7.58,4.32-13.78,6.16-38.84C278.21,810,279.21,796.34,279,776.16Z"/></svg>